<svg width="5" height="12" viewBox="0 0 5 12" fill="none" xmlns="http://www.w3.org/2000/svg">
<path d="M1.0612 12.0011C1.0612 10.0108 1.0612 8.02039 1.0612 6.0135C0.700888 6.0135 0.35538 6.0135 0 6.0135C0 5.29774 0 4.60401 0 3.89375C0.350444 3.89375 0.693485 3.89375 1.04886 3.89375C1.05133 3.83594 1.05627 3.79189 1.05627 3.7506C1.0612 3.24957 1.04393 2.74853 1.07601 2.25025C1.15005 1.072 1.77937 0.127749 2.97631 0.0341493C3.6229 -0.0154033 4.27443 0.0148789 4.92349 0.00662008C4.93583 0.00662008 4.94571 0.0121259 4.96298 0.0176318C4.96298 0.694851 4.96298 1.37207 4.96298 2.06581C4.7927 2.06581 4.62488 2.06581 4.45953 2.06581C4.23741 2.06581 4.0153 2.06306 3.79319 2.06581C3.50197 2.06856 3.31688 2.22272 3.30207 2.53931C3.27986 2.98253 3.29714 3.42575 3.29714 3.88274C3.86229 3.88274 4.42004 3.88274 5 3.88274C4.93337 4.59575 4.87167 5.29499 4.80503 6.00525C4.30158 6.00525 3.80553 6.00525 3.29714 6.00525C3.29714 8.00937 3.29714 9.99699 3.29714 11.9984C2.54936 12.0011 1.81145 12.0011 1.0612 12.0011Z" fill="white"/>
</svg>
