<svg width="64" height="56" viewBox="0 0 64 56" fill="none" xmlns="http://www.w3.org/2000/svg">
<g clip-path="url(#clip0)">
<path d="M63.8672 54.4293C63.9183 54.5401 63.9285 54.5502 63.9285 54.5703C64.0714 55.9899 64.0714 55.9899 62.642 55.9899C60.3139 55.9899 57.9757 55.9899 55.6477 55.9899C43.8136 55.9899 31.9897 55.9899 20.1557 55.9899C18.2361 55.9899 16.3063 55.9899 14.3867 55.9899C9.73065 55.9899 5.08483 55.9899 0.428802 55.9899C0.296064 55.9899 0.163326 55.9698 -0.0102539 55.9597C-0.0102539 55.4664 -0.0102539 54.9932 -0.0102539 54.4293C0.377749 54.4293 0.765751 54.4293 1.15375 54.4293C2.17481 54.4293 3.19587 54.4193 4.21693 54.4293C4.55388 54.4293 4.6662 54.3186 4.6662 53.9863C4.65599 53.2211 4.6662 52.4559 4.6662 51.6908C4.53346 51.6706 4.48241 51.6505 4.44157 51.6605C1.59281 52.2445 -0.336993 49.4959 0.40838 46.8882C0.724909 45.7706 1.42944 44.9651 2.52197 44.5221C2.80787 44.4114 2.88955 44.2603 2.90998 43.9683C2.97124 42.6494 3.82893 41.6325 5.03378 41.411C6.18758 41.1996 7.21885 41.7936 7.81106 42.9917C7.88254 43.1427 8.08675 43.3139 8.2297 43.324C10.0166 43.4045 11.1806 45.4081 10.4658 47.1499C10.3024 47.5527 10.3024 47.9051 10.4556 48.3078C11.1806 50.251 10.0472 52.4056 8.1378 52.6875C7.5558 52.7681 6.94316 52.617 6.29989 52.5768C6.29989 53.1205 6.29989 53.7447 6.29989 54.4193C6.51432 54.4293 6.70832 54.4495 6.91253 54.4495C10.3637 54.4495 13.8149 54.4394 17.2559 54.4595C17.7664 54.4595 17.9195 54.3286 17.9195 53.8152C17.8991 38.2596 17.9093 22.7141 17.8991 7.15858C17.8991 5.12478 17.8991 3.10105 17.9093 1.06725C17.9093 0.261781 18.1646 0.0201416 18.9815 0.0201416C24.3726 0.0201416 29.7638 0.0302099 35.1652 0.0302099C37.6668 0.0302099 40.1684 0.0201416 42.67 0.0201416C43.5584 0.0201416 43.7932 0.241645 43.7932 1.11759C43.7932 11.2161 43.7932 21.3146 43.7932 31.4132C43.7932 37.6253 43.7932 43.8274 43.7932 50.0395C43.7932 51.3283 43.8034 52.6271 43.783 53.9158C43.7728 54.3286 43.9157 54.4696 44.3344 54.4595C45.6617 54.4394 46.9891 54.4394 48.3165 54.4595C48.7351 54.4696 48.8679 54.3085 48.827 53.936C48.8168 53.8856 48.8168 53.8353 48.827 53.785C48.9393 53.06 48.7351 52.6674 47.9387 52.3754C46.1518 51.7109 45.2227 49.7677 45.6005 47.8749C45.9681 46.0525 47.6017 44.7134 49.5316 44.6631C51.4716 44.6127 53.1563 45.8713 53.626 47.7339C54.0855 49.5764 53.2278 51.4491 51.5124 52.315C51.4205 52.3653 51.3388 52.4157 51.2469 52.466C50.9815 52.5969 50.5322 52.6674 50.4913 52.8486C50.379 53.2916 50.4301 53.7749 50.4607 54.2481C50.4709 54.3286 50.7058 54.4495 50.8385 54.4595C51.5839 54.4897 52.3293 54.5099 53.0746 54.5099C54.7696 54.5099 56.4748 54.4696 58.1697 54.4797C58.67 54.4897 58.864 54.3387 58.7823 53.8554C58.7823 53.8353 58.7823 53.8252 58.7823 53.8051C58.8845 53.0902 58.7007 52.6774 57.894 52.3855C56.3726 51.8317 55.3516 49.9187 55.4741 48.1366C55.6171 45.831 56.3726 43.7066 57.6183 41.7533C57.8021 41.4714 58.0166 41.2096 58.2514 40.968C59.1295 40.082 60.1404 40.0518 60.9368 41.0183C61.529 41.7332 62.0191 42.5588 62.4377 43.3945C63.1933 44.9349 63.663 46.566 63.6834 48.2877C63.7141 50.3215 62.499 52.1438 60.6917 52.6372C60.5692 52.6674 60.4058 52.8083 60.3956 52.909C60.365 53.342 60.3548 53.785 60.3956 54.2179C60.4058 54.3186 60.6509 54.4595 60.7938 54.4595C61.6413 54.4797 62.499 54.4696 63.3465 54.4696C63.5201 54.4293 63.7039 54.4293 63.8672 54.4293ZM19.5124 27.9698C19.5124 30.8191 19.5124 33.6785 19.5124 36.5279C19.5124 42.297 19.5124 48.0762 19.5022 53.8454C19.5022 54.2884 19.6043 54.4595 20.0944 54.4495C21.7587 54.4193 23.4333 54.4293 25.0976 54.4495C25.5264 54.4595 25.6592 54.3186 25.649 53.9058C25.6285 52.2747 25.6388 50.6537 25.6388 49.0226C25.6388 48.1266 25.8532 47.9051 26.7415 47.9051C29.4779 47.9051 32.2246 47.9051 34.961 47.9051C35.8391 47.9051 36.074 48.1266 36.074 49.0126C36.074 50.6537 36.074 52.3049 36.074 53.9461C36.074 54.2179 36.074 54.4394 36.462 54.4394C38.2488 54.4293 40.0357 54.4293 41.8226 54.4394C42.1084 54.4394 42.2208 54.3286 42.2106 54.0467C42.2003 53.6239 42.2106 53.2111 42.2106 52.7882C42.2106 45.9921 42.2106 39.196 42.2106 32.3998C42.2106 22.3617 42.2106 12.3337 42.2106 2.29558C42.2106 1.57066 42.2106 1.57066 41.455 1.57066C34.379 1.57066 27.2929 1.57066 20.2169 1.57066C19.5124 1.57066 19.5124 1.57066 19.5124 2.28551C19.5124 10.8537 19.5124 19.4117 19.5124 27.9698ZM6.208 48.7307C6.26926 49.2341 6.28968 49.6771 6.39179 50.11C6.52453 50.6839 7.04527 51.1068 7.57622 51.137C8.19906 51.1773 8.64833 50.8651 8.85254 50.3315C9.0057 49.9489 9.13844 49.4354 9.0057 49.0831C8.66875 48.1467 8.63812 47.2909 9.02612 46.3545C9.30181 45.68 8.79128 44.9047 8.12759 44.9047C7.16779 44.9047 6.61642 44.4416 6.3101 43.5858C6.16716 43.1931 5.89147 42.9212 5.4422 42.9414C4.97252 42.9615 4.71725 43.2837 4.5743 43.6764C4.51304 43.8475 4.50283 44.0388 4.50283 44.2201C4.4722 45.0658 4.08419 45.6397 3.25714 45.9216C2.4505 46.2237 2.01144 46.8177 1.88892 47.6231C1.75618 48.489 1.93997 49.3046 2.70576 49.808C3.05292 50.0395 3.55324 50.11 3.98209 50.1201C4.43135 50.1302 4.74788 49.8785 4.6662 49.3448C4.63557 49.1535 4.6662 48.9522 4.6662 48.7307C5.21757 48.7307 5.70768 48.7307 6.208 48.7307ZM30.836 49.4757C29.7843 49.4757 28.7224 49.4858 27.6707 49.4757C27.3439 49.4757 27.2214 49.5865 27.2214 49.9087C27.2316 51.2679 27.2316 52.6271 27.2214 53.9863C27.2214 54.3488 27.3643 54.4394 27.7013 54.4394C29.8149 54.4293 31.9183 54.4293 34.0319 54.4394C34.3586 54.4394 34.4811 54.3387 34.4811 54.0065C34.4709 52.6472 34.4607 51.288 34.4811 49.9288C34.4811 49.5663 34.3484 49.4657 34.0012 49.4757C32.9495 49.4858 31.8876 49.4757 30.836 49.4757ZM60.3548 50.9256C60.4058 50.9457 60.4569 50.9759 60.5079 50.996C60.7121 50.8551 60.9368 50.7343 61.1104 50.5732C61.7741 49.9691 62.0804 49.1938 62.0497 48.3179C61.9681 46.1129 61.2329 44.1194 59.977 42.3171C59.6196 41.8137 59.4869 41.8137 59.1295 42.3272C57.8838 44.1093 57.1793 46.0827 57.0568 48.2373C57.0057 49.1737 57.3631 50.0194 58.0982 50.6537C58.2616 50.7947 58.476 50.8752 58.7721 51.0564C58.7721 49.8382 58.7721 48.7609 58.7721 47.6231C59.1193 47.6231 59.4052 47.6231 59.6911 47.6231C60.3548 47.6231 60.3548 47.6231 60.365 48.2776C60.3548 49.1535 60.3548 50.0395 60.3548 50.9256ZM48.8168 50.9658C48.8168 50.553 48.8066 50.1906 48.8168 49.8281C48.8372 48.4689 48.6534 48.7609 49.94 48.7105C50.3382 48.6904 50.4301 48.8515 50.4199 49.2139C50.3995 49.7778 50.4097 50.3315 50.4097 50.9054C51.3388 50.8349 52.1046 49.818 52.125 48.7407C52.1455 47.4319 51.1244 46.3344 49.7868 46.2136C48.6024 46.1028 47.3975 47.0392 47.1627 48.2272C46.9278 49.3952 47.6426 50.6336 48.8168 50.9658Z" fill="black"/>
<path d="M55.4334 39.9511C55.4334 39.6692 55.4334 39.4779 55.4334 39.2765C55.4334 33.2053 55.4334 27.1341 55.4334 21.0629C55.4334 19.9856 55.4334 18.9184 55.4334 17.8411C55.4334 16.2201 55.4232 14.589 55.4436 12.968C55.4436 12.5753 55.3313 12.4545 54.9228 12.4545C52.3089 12.4747 49.695 12.4646 47.0811 12.4646C46.8565 12.4646 46.642 12.4646 46.3459 12.4646C46.3459 12.0015 46.3255 11.5685 46.3663 11.1456C46.3766 11.045 46.6114 10.904 46.7543 10.904C47.6325 10.8839 48.5208 10.8939 49.3989 10.8939C51.5533 10.8939 53.718 10.8939 55.8724 10.8939C56.8424 10.8939 57.0364 11.0953 57.0466 12.0417C57.0466 13.703 57.0671 15.3643 57.0569 17.0255C57.0569 24.0935 57.0466 31.1715 57.0364 38.2395C57.0364 38.6724 57.0262 39.1154 57.0364 39.5484C57.0466 39.8404 56.9547 39.9813 56.628 39.9612C56.2706 39.931 55.8928 39.9511 55.4334 39.9511Z" fill="black"/>
<path d="M15.3466 10.9241C15.3466 11.4376 15.3466 11.9008 15.3466 12.4444C12.3447 12.4444 9.35297 12.4444 6.27958 12.4444C6.27958 21.2744 6.27958 30.0338 6.27958 38.8537C5.76905 38.8537 5.3402 38.8637 4.90114 38.8436C4.81946 38.8436 4.70714 38.6926 4.67651 38.5919C4.63567 38.4711 4.6663 38.3301 4.6663 38.1891C4.6663 29.47 4.6663 20.7407 4.6663 12.0216C4.6663 11.1154 4.88072 10.8939 5.80989 10.8939C8.78117 10.8939 11.7525 10.8939 14.734 10.8939C14.928 10.8939 15.122 10.904 15.3466 10.9241Z" fill="black"/>
<path d="M51.0527 34.5041C51.0527 33.0341 51.0527 31.6548 51.0527 30.2049C51.5122 30.2049 51.9513 30.1848 52.3801 30.215C52.472 30.2251 52.6149 30.4063 52.6149 30.507C52.6354 31.7454 52.6354 32.9838 52.6149 34.2222C52.6149 34.3229 52.4516 34.484 52.3597 34.494C51.941 34.5242 51.5224 34.5041 51.0527 34.5041Z" fill="black"/>
<path d="M46.6523 22.5732C47.0812 22.5732 47.4998 22.553 47.9185 22.5832C48.0206 22.5933 48.1941 22.7544 48.1941 22.845C48.2146 24.164 48.2044 25.4829 48.2044 26.8421C47.6632 26.8421 47.1731 26.8421 46.6523 26.8421C46.6523 25.4426 46.6523 24.0431 46.6523 22.5732Z" fill="black"/>
<path d="M46.6523 37.8771C48.2146 37.6958 48.2146 37.6958 48.2146 39.1557C48.2146 40.0115 48.2044 40.8673 48.2146 41.7231C48.2146 42.0151 48.1329 42.1561 47.8061 42.1359C47.4386 42.1158 47.0608 42.1359 46.6523 42.1359C46.6523 40.6861 46.6523 39.2967 46.6523 37.8771Z" fill="black"/>
<path d="M46.6421 34.5142C46.6421 33.0543 46.6421 31.6749 46.6421 30.2049C47.0811 30.2049 47.5202 30.1848 47.949 30.2251C48.0409 30.2351 48.2043 30.4365 48.2043 30.5472C48.2247 31.7555 48.2145 32.9536 48.2145 34.1618C48.2145 34.4135 48.1328 34.5343 47.8674 34.5243C47.4794 34.5041 47.0914 34.5142 46.6421 34.5142Z" fill="black"/>
<path d="M46.6217 19.2708C46.6217 17.8813 46.6115 16.5725 46.6319 15.2737C46.6319 15.173 46.8157 14.9917 46.9178 14.9817C47.316 14.9515 47.7244 14.9716 48.2145 14.9716C48.2145 15.3844 48.2145 15.7469 48.2145 16.1093C48.2145 17.0155 48.2043 17.9216 48.2247 18.8278C48.235 19.1902 48.1022 19.301 47.7551 19.2808C47.3977 19.2506 47.0403 19.2708 46.6217 19.2708Z" fill="black"/>
<path d="M10.6802 42.0654C9.14867 42.3373 9.0874 42.2869 9.0874 40.8874C9.0874 40.0719 9.0874 39.2463 9.0874 38.4308C9.0874 38.2495 9.10782 38.0683 9.11803 37.9173C9.19972 37.8871 9.23035 37.8669 9.26098 37.8569C10.6905 37.7058 10.6905 37.7058 10.6905 39.0953C10.6802 40.0719 10.6802 41.0586 10.6802 42.0654Z" fill="black"/>
<path d="M52.6256 19.2305C52.0742 19.2305 51.5739 19.2305 51.0327 19.2305C51.0327 17.8713 51.0327 16.5523 51.0327 15.2334C51.0327 15.2132 51.0327 15.1931 51.0327 15.183C51.3492 14.7501 51.7985 15.032 52.1865 14.9817C52.3193 14.9615 52.6052 15.1428 52.6052 15.2334C52.6358 16.5624 52.6256 17.8813 52.6256 19.2305Z" fill="black"/>
<path d="M10.6697 19.2708C10.1898 19.2708 9.75078 19.2909 9.31173 19.2607C9.23004 19.2506 9.08709 19.0694 9.08709 18.9587C9.06667 17.7404 9.06667 16.5121 9.08709 15.2938C9.08709 15.1931 9.23004 15.0018 9.32194 14.9917C9.68952 14.9615 10.0673 14.9615 10.4451 14.9917C10.5268 15.0018 10.6595 15.1528 10.6595 15.2434C10.6799 16.5624 10.6697 17.8813 10.6697 19.2708Z" fill="black"/>
<path d="M9.0874 30.2251C9.63877 30.2251 10.1187 30.2251 10.6394 30.2251C10.6394 31.6447 10.6394 33.0442 10.6394 34.5041C10.1901 34.5041 9.7613 34.5142 9.32225 34.4941C9.24056 34.4941 9.09761 34.3632 9.09761 34.3028C9.0874 32.9536 9.0874 31.6044 9.0874 30.2251Z" fill="black"/>
<path d="M51.0527 42.1258C51.0527 40.6659 51.0527 39.2866 51.0527 37.8367C51.5122 37.8367 51.9513 37.8166 52.3903 37.8468C52.4822 37.8569 52.615 38.0381 52.6252 38.1388C52.6456 39.3671 52.6456 40.5854 52.6252 41.8137C52.6252 41.9144 52.4822 42.0956 52.3903 42.1057C51.9411 42.146 51.5122 42.1258 51.0527 42.1258Z" fill="black"/>
<path d="M51.0527 26.8824C51.0527 25.4225 51.0527 24.0432 51.0527 22.5833C51.502 22.5833 51.9411 22.5631 52.3699 22.6034C52.4618 22.6135 52.615 22.8148 52.615 22.9356C52.6354 24.1237 52.6252 25.3118 52.6354 26.4898C52.6354 26.8019 52.5231 26.9026 52.2167 26.8925C51.8492 26.8623 51.4714 26.8824 51.0527 26.8824Z" fill="black"/>
<path d="M10.6498 22.5732C10.6498 24.0431 10.6498 25.4225 10.6498 26.8421C10.1392 26.8421 9.64914 26.8421 9.09777 26.8421C9.09777 26.4193 9.09777 26.0065 9.09777 25.5937C9.09777 24.7177 9.09777 23.8518 9.07735 22.9759C9.06714 22.6839 9.16924 22.543 9.48577 22.5631C9.85335 22.5933 10.2311 22.5732 10.6498 22.5732Z" fill="black"/>
<path d="M15.0914 19.2507C14.5401 19.2507 14.0704 19.2507 13.5088 19.2507C13.5088 18.5157 13.5088 17.8109 13.5088 17.096C13.5088 16.502 13.519 15.908 13.5292 15.3139C13.5292 15.2435 13.519 15.1226 13.5292 15.1226C13.9478 15.0622 14.3665 14.9918 14.7851 14.9817C14.8872 14.9817 15.0914 15.1529 15.0914 15.2535C15.0914 16.5624 15.0914 17.8814 15.0914 19.2507Z" fill="black"/>
<path d="M15.0911 32.3596C15.0911 32.9335 15.0809 33.4973 15.0911 34.0712C15.1013 34.3732 15.0298 34.5343 14.6725 34.5243C13.243 34.484 13.5289 34.7156 13.4983 33.4167C13.4778 32.5307 13.5085 31.6447 13.488 30.7587C13.4778 30.366 13.5697 30.1949 14.019 30.2049C15.0809 30.2251 15.0809 30.2049 15.0809 31.2722C15.0911 31.6246 15.0911 31.987 15.0911 32.3596Z" fill="black"/>
<path d="M13.5084 22.5732C13.9781 22.5732 14.407 22.553 14.8154 22.5832C14.9073 22.5933 15.0707 22.7544 15.0707 22.8551C15.0911 24.174 15.0809 25.4829 15.0809 26.8724C14.6112 26.8724 14.1926 26.8925 13.7739 26.8623C13.682 26.8522 13.5187 26.6911 13.5084 26.6005C13.4982 25.2816 13.5084 23.9626 13.5084 22.5732Z" fill="black"/>
<path d="M15.0914 42.1258C14.6115 42.1258 14.1929 42.146 13.7742 42.1057C13.6721 42.0956 13.519 41.8943 13.519 41.7835C13.4985 40.5955 13.5087 39.3973 13.4985 38.2093C13.4985 37.9374 13.5904 37.8367 13.8763 37.8166C15.0812 37.7461 15.0812 37.7461 15.0812 38.9443C15.0914 39.9914 15.0914 41.0284 15.0914 42.1258Z" fill="black"/>
<path d="M15.091 47.603C15.091 48.187 15.0808 48.771 15.091 49.365C15.1012 49.6368 14.9991 49.7375 14.7132 49.7577C13.4981 49.8181 13.4981 49.8281 13.4981 48.63C13.4981 47.7239 13.5084 46.8177 13.4879 45.9216C13.4777 45.5793 13.59 45.4484 13.9474 45.4585C15.3258 45.4887 15.0399 45.3175 15.0706 46.5157C15.1012 46.868 15.091 47.2305 15.091 47.603Z" fill="black"/>
<path d="M28.7017 14.6494C28.7017 14.1158 28.7017 13.6325 28.7017 13.1291C28.8038 13.1089 28.9059 13.0687 28.9978 13.0687C30.2026 13.0687 31.4075 13.0687 32.6123 13.0586C32.9493 13.0586 33.0514 13.1693 33.0514 13.4915C33.0718 14.6494 33.082 14.6494 31.9282 14.6494C30.8663 14.6494 29.8146 14.6494 28.7017 14.6494Z" fill="black"/>
<path d="M35.3286 14.6494C35.3286 14.1057 35.3286 13.6224 35.3286 13.0687C35.7064 13.0687 36.0536 13.0687 36.4109 13.0687C37.3503 13.0687 38.2795 13.0787 39.2188 13.0586C39.5864 13.0485 39.6681 13.1996 39.6783 13.5318C39.6885 14.6494 39.6987 14.6494 38.5552 14.6494C37.5035 14.6494 36.4416 14.6494 35.3286 14.6494Z" fill="black"/>
<path d="M22.0448 5.92019C22.0448 5.44698 22.0243 5.03418 22.055 4.62138C22.0652 4.52069 22.2285 4.3596 22.3204 4.3596C23.5763 4.33946 24.8322 4.34953 26.0882 4.34953C26.1086 4.34953 26.129 4.34953 26.1392 4.34953C26.6702 4.61131 26.3026 5.08452 26.3843 5.44698C26.4251 5.62821 26.4762 5.91012 26.1086 5.91012C24.7914 5.92019 23.4538 5.92019 22.0448 5.92019Z" fill="black"/>
<path d="M28.743 18.9587C28.7123 18.9184 28.7021 18.8983 28.7021 18.8882C28.5183 17.4182 28.5183 17.4182 29.9887 17.4182C30.8668 17.4182 31.7551 17.4283 32.6332 17.4182C32.9293 17.4182 33.0723 17.5088 33.0518 17.8209C33.0314 18.1834 33.0518 18.5559 33.0518 18.9587C31.5815 18.9587 30.1724 18.9587 28.743 18.9587Z" fill="black"/>
<path d="M39.6576 18.9687C38.1668 18.9687 36.768 18.9687 35.2977 18.9687C35.2977 18.5257 35.2773 18.1129 35.3079 17.7001C35.3181 17.5994 35.5121 17.4384 35.6244 17.4384C36.8497 17.4182 38.075 17.4182 39.3002 17.4384C39.4227 17.4384 39.627 17.6196 39.6372 17.7303C39.6882 18.123 39.6576 18.5257 39.6576 18.9687Z" fill="black"/>
<path d="M37.5239 32.0575C36.9112 32.0575 36.2986 32.0475 35.6859 32.0575C35.4103 32.0676 35.2979 31.977 35.2877 31.685C35.2265 30.4768 35.2163 30.4768 36.462 30.4768C37.3809 30.4768 38.2999 30.4869 39.2188 30.4768C39.5456 30.4667 39.6783 30.5674 39.6681 30.8997C39.6272 32.3193 39.8621 32.0173 38.5449 32.0575C38.208 32.0676 37.8608 32.0575 37.5239 32.0575Z" fill="black"/>
<path d="M26.3739 34.8465C26.3739 35.4304 26.3739 35.8936 26.3739 36.3869C24.9342 36.3869 23.5251 36.3869 22.0548 36.3869C22.0548 35.9439 22.0446 35.521 22.065 35.0881C22.065 35.0076 22.1875 34.8565 22.259 34.8565C23.6272 34.8465 24.9955 34.8465 26.3739 34.8465Z" fill="black"/>
<path d="M39.6683 36.4171C38.3205 36.4171 37.0646 36.4171 35.8087 36.4171C35.676 36.4171 35.5433 36.4171 35.3084 36.4171C35.3084 35.9439 35.288 35.5009 35.3186 35.0579C35.3288 34.9774 35.5228 34.8465 35.6352 34.8465C36.8604 34.8263 38.0857 34.8364 39.311 34.8364C39.5764 34.8364 39.6786 34.9371 39.6683 35.1989C39.6581 35.5815 39.6683 35.964 39.6683 36.4171Z" fill="black"/>
<path d="M22.1159 18.9989C22.0751 18.8781 22.0547 18.8378 22.0444 18.7875C21.9219 17.4182 21.9219 17.4182 23.3003 17.4182C24.301 17.4182 25.3016 17.4182 26.3942 17.4182C26.3942 17.9116 26.4044 18.3546 26.3839 18.7976C26.3839 18.868 26.2002 18.9989 26.1083 18.9989C24.7911 19.009 23.4637 18.9989 22.1159 18.9989Z" fill="black"/>
<path d="M35.3794 5.92017C35.3385 5.79935 35.3181 5.76915 35.3181 5.73894C35.1956 4.34952 35.1956 4.34952 36.5945 4.34952C37.4726 4.34952 38.3609 4.35959 39.239 4.34952C39.5351 4.34952 39.6576 4.43006 39.6679 4.74218C39.7189 5.92017 39.7291 5.92017 38.5243 5.92017C37.4726 5.92017 36.4311 5.92017 35.3794 5.92017Z" fill="black"/>
<path d="M30.836 10.2999C30.254 10.2999 29.6822 10.2798 29.1002 10.31C28.753 10.3201 28.6611 10.1892 28.6611 9.86698C28.6918 8.46748 28.4773 8.73933 29.8047 8.71919C30.7237 8.69905 31.6426 8.72926 32.5616 8.70912C32.8883 8.69905 33.0619 8.7796 33.0517 9.15213C33.0108 10.5516 33.2457 10.2697 31.9081 10.2999C31.5507 10.31 31.1934 10.2999 30.836 10.2999Z" fill="black"/>
<path d="M37.5138 10.2999C36.9011 10.2999 36.2885 10.2898 35.6759 10.2999C35.39 10.31 35.2981 10.1992 35.2879 9.91731C35.247 8.72925 35.2368 8.71918 36.4213 8.70911C37.3504 8.69905 38.2898 8.71918 39.219 8.70911C39.5559 8.69905 39.6682 8.81987 39.658 9.15212C39.6274 10.5516 39.8418 10.2697 38.5246 10.2999C38.1877 10.31 37.8507 10.2999 37.5138 10.2999Z" fill="black"/>
<path d="M26.4045 14.6494C24.9853 14.6494 23.6681 14.6494 22.3407 14.6494C22.3101 14.6494 22.259 14.6595 22.2386 14.6393C21.82 14.2769 22.1161 13.8037 22.0548 13.3808C22.0446 13.2902 22.259 13.0788 22.3815 13.0788C23.6068 13.0586 24.8321 13.0586 26.0472 13.0788C26.1595 13.0788 26.3637 13.2701 26.3739 13.3808C26.4249 13.7835 26.4045 14.1863 26.4045 14.6494Z" fill="black"/>
<path d="M26.4047 23.3182C24.9241 23.3182 23.5151 23.3182 22.0448 23.3182C22.0448 22.8853 22.0243 22.4624 22.055 22.0597C22.0652 21.959 22.2592 21.7879 22.3613 21.7879C23.5968 21.7677 24.8425 21.7677 26.0779 21.7879C26.18 21.7879 26.3638 21.959 26.374 22.0698C26.4251 22.4624 26.4047 22.8652 26.4047 23.3182Z" fill="black"/>
<path d="M28.7017 21.808C30.1618 21.808 31.5708 21.808 33.0105 21.808C33.0105 22.3215 33.0105 22.7947 33.0105 23.3082C31.5708 23.3082 30.1516 23.3082 28.7017 23.3082C28.7017 22.8047 28.7017 22.3315 28.7017 21.808Z" fill="black"/>
<path d="M39.6683 23.3182C38.1878 23.3182 36.789 23.3182 35.3084 23.3182C35.3084 22.8853 35.288 22.4725 35.3186 22.0597C35.3288 21.959 35.5126 21.7879 35.625 21.7879C36.8604 21.7677 38.1061 21.7677 39.3416 21.7879C39.4539 21.7879 39.6377 21.9892 39.6479 22.1101C39.6888 22.4926 39.6683 22.8752 39.6683 23.3182Z" fill="black"/>
<path d="M28.6717 40.7163C28.6717 40.2834 28.6513 39.8907 28.6819 39.488C28.6921 39.3873 28.8453 39.2061 28.927 39.2061C30.2646 39.1859 31.6124 39.196 32.9908 39.196C32.9908 39.7196 32.9908 40.1928 32.9908 40.7163C31.5817 40.7163 30.1727 40.7163 28.6717 40.7163Z" fill="black"/>
<path d="M26.3739 39.196C26.3739 39.7296 26.3739 40.2028 26.3739 40.7263C24.9444 40.7263 23.5251 40.7263 22.0548 40.7263C22.0548 40.2833 22.0446 39.8504 22.065 39.4175C22.065 39.3369 22.208 39.206 22.2794 39.206C23.6272 39.196 24.9852 39.196 26.3739 39.196Z" fill="black"/>
<path d="M22.0445 30.4869C23.4536 30.4869 24.7912 30.4869 26.1288 30.4869C26.1492 30.4869 26.1696 30.4869 26.1798 30.4869C26.6495 30.8292 26.3024 31.3125 26.3841 31.7253C26.4045 31.8159 26.1901 32.0374 26.0777 32.0374C24.8423 32.0575 23.5966 32.0575 22.3509 32.0374C22.2488 32.0374 22.0548 31.8964 22.0548 31.8159C22.0343 31.393 22.0445 30.9601 22.0445 30.4869Z" fill="black"/>
<path d="M28.7426 5.92018C28.7018 5.79936 28.6813 5.76915 28.6813 5.73895C28.569 4.34952 28.569 4.34952 29.9679 4.34952C30.8358 4.34952 31.7037 4.35959 32.5716 4.33945C32.9085 4.32938 33.0515 4.42 33.0515 4.78246C33.0617 5.92018 33.0821 5.92018 31.9487 5.92018C30.8766 5.92018 29.8147 5.92018 28.7426 5.92018Z" fill="black"/>
<path d="M39.6375 39.2362C39.6375 39.7397 39.6375 40.2028 39.6375 40.7163C38.208 40.7163 36.7888 40.7163 35.3389 40.7163C35.3389 40.2431 35.3389 39.7598 35.3389 39.2362C36.7479 39.2362 38.1672 39.2362 39.6375 39.2362Z" fill="black"/>
<path d="M26.4047 10.2999C24.9854 10.2999 23.6581 10.2999 22.3205 10.2999C22.3 10.2999 22.2796 10.2999 22.2694 10.2898C21.7895 9.97771 22.1265 9.5045 22.0652 9.11184C22.0448 9.00108 22.249 8.73931 22.3613 8.73931C23.5968 8.7091 24.8323 8.71917 26.0678 8.73931C26.1801 8.73931 26.3741 8.94067 26.3945 9.07156C26.4251 9.44409 26.4047 9.82669 26.4047 10.2999Z" fill="black"/>
<path d="M28.7226 32.0274C28.6919 31.9569 28.6715 31.9267 28.6715 31.8965C28.6919 30.1244 28.4061 30.5171 30.0397 30.497C30.8872 30.4869 31.7347 30.497 32.5822 30.4768C32.9395 30.4668 33.0723 30.5876 33.0519 30.94C33.0314 31.2924 33.0417 31.6347 33.0417 32.0274C31.5611 32.0274 30.1316 32.0274 28.7226 32.0274Z" fill="black"/>
<path d="M28.6717 36.3769C28.6717 35.9338 28.6513 35.5009 28.6819 35.078C28.6921 34.9874 28.8759 34.8465 28.978 34.8465C29.8766 34.8364 30.7751 34.8565 31.6736 34.8666C32.1025 34.8666 32.5313 34.8666 33.001 34.8666C33.001 35.3499 33.001 35.8432 33.001 36.3668C31.5715 36.3769 30.1522 36.3769 28.6717 36.3769Z" fill="black"/>
<path d="M22.0752 26.1273C23.0044 26.1273 23.9029 26.1273 24.8014 26.1273C25.0261 26.1273 25.2405 26.1172 25.4651 26.1273C25.7612 26.1474 26.2922 26.1273 26.3126 26.228C26.4147 26.6408 26.3739 27.0838 26.3636 27.5066C26.3636 27.5771 26.2003 27.6879 26.1186 27.6879C24.7912 27.6778 23.474 27.6577 22.1467 27.6476C22.1365 27.6476 22.116 27.6275 22.0752 27.5973C22.0752 27.1442 22.0752 26.671 22.0752 26.1273Z" fill="black"/>
<path d="M37.4221 27.698C36.8503 27.698 36.2683 27.6879 35.6965 27.698C35.4208 27.7081 35.3085 27.6174 35.2983 27.3255C35.237 26.1273 35.2268 26.1273 36.4316 26.1273C37.3608 26.1273 38.3002 26.1374 39.2293 26.1173C39.5561 26.1072 39.6888 26.2079 39.6786 26.5401C39.648 27.9598 39.8624 27.6577 38.5452 27.6879C38.1674 27.708 37.7896 27.698 37.4221 27.698Z" fill="black"/>
<path d="M28.6717 43.5556C29.2129 43.5556 29.6826 43.5556 30.1522 43.5556C30.9691 43.5556 31.7757 43.5455 32.5926 43.5656C32.7355 43.5656 32.9908 43.6562 33.001 43.7267C33.0418 44.1194 33.0316 44.5221 33.0112 44.9249C33.0112 44.9953 32.8478 45.1061 32.7661 45.1061C31.4898 45.1162 30.2237 45.1162 28.9474 45.1061C28.8555 45.1061 28.6819 44.945 28.6819 44.8544C28.6513 44.4315 28.6717 44.0187 28.6717 43.5556Z" fill="black"/>
<path d="M35.3286 45.1162C35.3286 44.5624 35.3286 44.0993 35.3286 43.6059C35.4818 43.5858 35.6043 43.5556 35.737 43.5556C36.8908 43.5556 38.0548 43.5656 39.2086 43.5455C39.566 43.5354 39.6885 43.6562 39.6783 44.0086C39.6477 45.3477 39.8519 45.096 38.596 45.1162C37.5239 45.1262 36.4518 45.1162 35.3286 45.1162Z" fill="black"/>
<path d="M22.0448 43.5858C23.5253 43.5858 24.9241 43.5858 26.4047 43.5858C26.4047 44.0288 26.4251 44.4416 26.3843 44.8544C26.374 44.9551 26.1698 45.1061 26.0575 45.1061C24.8322 45.1262 23.607 45.1262 22.3817 45.1061C22.2694 45.1061 22.0652 44.945 22.055 44.8544C22.0243 44.4315 22.0448 44.0187 22.0448 43.5858Z" fill="black"/>
<path d="M28.6711 26.1373C30.07 26.1373 31.4076 26.1273 32.7452 26.1474C32.8473 26.1474 33.0106 26.3085 33.0208 26.3991C33.0515 26.7314 33.0617 27.0737 33.0208 27.3959C33.0106 27.5066 32.8268 27.6778 32.7247 27.6778C31.4688 27.6979 30.2129 27.6979 28.957 27.6778C28.8651 27.6778 28.6915 27.5167 28.6915 27.4261C28.6507 27.0133 28.6711 26.6005 28.6711 26.1373Z" fill="black"/>
</g>
<defs>
<clipPath id="clip0">
<rect width="64" height="56" fill="white"/>
</clipPath>
</defs>
</svg>
