<svg width="47" height="47" viewBox="0 0 47 47" fill="none" xmlns="http://www.w3.org/2000/svg">
<g clip-path="url(#clip0)">
<path d="M23.4812 46.989C17.6689 46.989 11.8566 46.9401 6.04436 47.0135C3.21775 47.0501 0.672581 45.1545 0.109707 42.366C0.0362882 41.9747 -0.000420976 41.5589 -0.000420976 41.1553C-0.000420976 29.9036 -0.0126574 18.652 -0.000420976 7.4004C-0.000420976 3.95153 2.71606 0.698342 6.06883 0.0746109C6.38698 0.0134608 6.71736 0.0256908 7.04774 0.0256908C10.1313 0.0256908 13.2027 0.0623809 16.2862 0.0134608C17.9748 -0.0109993 19.4065 0.551582 20.6791 1.5789C21.9272 2.58177 22.8816 3.817 23.42 5.33352C23.5791 5.79826 23.7994 5.90833 24.2521 5.90833C29.11 5.8961 33.9556 5.8961 38.8134 5.8961C43.035 5.8961 46.1308 8.42772 46.9262 12.5737C46.9996 12.9528 46.9996 13.3442 46.9996 13.7356C46.9996 22.8469 46.9996 31.9583 46.9996 41.0697C46.9996 44.5063 44.4911 47.0012 41.0527 47.0012C35.1915 46.989 29.3425 46.989 23.4812 46.989ZM23.5669 29.3778C16.5921 29.3778 9.61739 29.3778 2.64264 29.3655C2.10424 29.3655 1.94517 29.5001 1.94517 30.0504C1.96964 33.6827 1.94517 37.3028 1.9574 40.9351C1.96964 43.5034 3.51143 45.0322 6.08107 45.0322C17.6812 45.0444 29.2813 45.0444 40.8814 45.0322C43.4755 45.0322 45.0173 43.4912 45.0173 40.874C45.0295 37.2906 45.005 33.695 45.0295 30.1116C45.0295 29.5245 44.8704 29.3533 44.2831 29.3533C37.394 29.3778 30.4804 29.3778 23.5669 29.3778ZM23.5057 27.421C30.3703 27.421 37.2472 27.421 44.1118 27.421C44.2953 27.421 44.4911 27.4576 44.6624 27.4087C44.797 27.3598 45.005 27.213 45.0173 27.103C45.0662 25.5375 45.1152 23.9599 44.2464 22.5412C42.986 20.4988 41.1383 19.5937 38.7645 19.5937C33.5885 19.6182 28.4125 19.5937 23.2243 19.5937C22.1597 19.5937 21.9517 19.4225 21.7559 18.3952C21.2664 15.8269 18.758 13.7233 16.1639 13.7233C13.2638 13.7233 10.376 13.7111 7.47602 13.7356C6.94985 13.7356 6.39921 13.76 5.90976 13.9068C3.63379 14.555 2.03082 16.7441 1.99411 19.2391C1.9574 21.7095 1.96964 24.1678 1.96964 26.6382C1.96964 27.4332 1.96964 27.4332 2.77724 27.4332C9.67857 27.421 16.5921 27.421 23.5057 27.421ZM2.01858 8.07305C2.11648 8.06082 2.16542 8.06082 2.18989 8.03636C2.33673 7.91406 2.47133 7.79176 2.60593 7.66946C3.96417 6.48315 5.51819 5.85941 7.34142 5.88387C10.376 5.92056 13.4229 5.88387 16.4575 5.8961C16.8613 5.8961 17.2774 5.8961 17.6689 5.99394C20.5323 6.6666 22.3065 8.57448 23.4078 11.1917C23.6036 11.6687 23.8361 11.7787 24.2888 11.7787C29.2201 11.7665 34.1636 11.7665 39.0949 11.7665C41.1628 11.7665 42.9616 12.4759 44.4911 13.8701C44.6135 13.9802 44.7603 14.0902 44.9439 14.2492C44.9806 14.0658 45.0173 13.9802 45.0173 13.8823C45.0295 12.378 44.5768 11.0327 43.5856 9.89532C42.3008 8.42772 40.6611 7.84068 38.74 7.85291C33.5395 7.87737 28.3391 7.86514 23.1386 7.85291C22.1597 7.85291 21.9272 7.65723 21.7559 6.70329C21.2909 4.09829 18.7702 1.97027 16.1516 1.97027C13.3005 1.97027 10.4372 1.97027 7.58615 1.97027C5.06545 1.97027 3.18104 3.27888 2.30002 5.63927C2.01858 6.42199 1.87175 7.22918 2.01858 8.07305ZM44.9439 20.0096C45.1274 19.0189 44.8704 17.7103 44.2586 16.683C42.986 14.5917 41.0894 13.6989 38.6788 13.7111C33.5151 13.7356 28.3635 13.7233 23.1998 13.7233C22.1719 13.7233 21.9517 13.5399 21.7681 12.5492C21.2909 9.95647 18.7702 7.85291 16.1394 7.85291C13.2883 7.85291 10.425 7.85291 7.57391 7.85291C5.06545 7.85291 3.16881 9.17375 2.30002 11.5341C2.00635 12.3169 1.89622 13.1241 2.04306 13.9679C2.15319 13.9312 2.18989 13.919 2.2266 13.8945C2.32449 13.8212 2.41015 13.7356 2.50804 13.6499C3.89075 12.3658 5.51819 11.7176 7.43931 11.7421C10.4372 11.7787 13.4351 11.7543 16.4331 11.7543C16.8369 11.7543 17.2529 11.7543 17.6445 11.8399C20.5078 12.5125 22.2943 14.4082 23.3956 17.0132C23.6036 17.5024 23.8361 17.6247 24.3255 17.6247C29.2568 17.6125 34.1881 17.6125 39.1316 17.6125C40.3797 17.6125 41.5789 17.8571 42.6557 18.4563C43.451 18.9089 44.173 19.4837 44.9439 20.0096Z" fill="black"/>
<path d="M23.4818 41.1174C20.6675 41.1174 17.8531 41.1174 15.051 41.1174C14.0476 41.1174 13.7172 40.7994 13.7172 39.8088C13.7049 38.0721 13.7049 36.3477 13.7172 34.611C13.7172 33.5837 14.0353 33.2779 15.0877 33.2779C20.7164 33.2779 26.3329 33.2779 31.9617 33.2779C32.9651 33.2779 33.2832 33.5959 33.2954 34.5865C33.3077 36.3232 33.3077 38.0476 33.2954 39.7843C33.2954 40.8116 32.9773 41.1051 31.925 41.1051C29.0983 41.1174 26.2962 41.1174 23.4818 41.1174ZM23.5185 35.247C21.0957 35.247 18.6607 35.2592 16.2379 35.2347C15.8341 35.2347 15.6505 35.3326 15.6628 35.7851C15.6872 36.7268 15.6872 37.6563 15.6628 38.598C15.6505 39.026 15.8096 39.1728 16.2379 39.1728C21.0957 39.1606 25.9414 39.1606 30.7992 39.1728C31.2397 39.1728 31.3498 38.9771 31.3498 38.5858C31.3254 37.693 31.3131 36.7879 31.3498 35.8951C31.3743 35.3693 31.1785 35.247 30.6891 35.247C28.2907 35.2592 25.9046 35.247 23.5185 35.247Z" fill="black"/>
</g>
<defs>
<clipPath id="clip0">
<rect width="47" height="47" fill="white"/>
</clipPath>
</defs>
</svg>
