<svg width="63" height="63" viewBox="0 0 63 63" fill="none" xmlns="http://www.w3.org/2000/svg">
<g clip-path="url(#clip0)">
<path d="M12.5965 39.9207C12.8589 39.9207 13.0514 39.9207 13.2351 39.9207C15.4482 39.9207 17.6701 39.9207 19.8832 39.9207C24.0733 39.9207 27.8435 41.2068 31.2288 43.6477C31.6924 43.9801 32.1473 44.1289 32.7159 44.1289C35.0165 44.1026 37.3259 44.1726 39.6265 44.1026C42.2945 44.0151 44.0003 46.1323 44.0877 48.2496C44.0877 48.302 44.1052 48.3633 44.1227 48.4858C44.6388 48.3195 45.1287 48.1621 45.6186 48.0046C48.2866 47.121 50.9458 46.2111 53.6139 45.3537C55.6433 44.6976 57.5852 44.9863 59.4222 46.0449C60.6119 46.7273 61.6441 47.5934 62.5976 48.5645C63.2362 49.2032 63.105 49.9643 62.3002 50.3843C57.3403 52.9389 52.3979 55.5198 47.4206 58.0394C44.9275 59.2993 42.3995 60.4979 39.8452 61.6177C37.6408 62.5888 35.3052 63.1137 32.8734 63C30.7827 62.9038 28.7358 62.4576 26.7588 61.7927C22.2451 60.2879 17.7488 58.7306 13.2351 57.1996C13.0426 57.1383 12.8589 57.0771 12.5965 56.9896C12.5965 57.2958 12.6052 57.532 12.5965 57.777C12.579 58.3894 12.1591 58.8356 11.5468 58.8356C8.06526 58.8443 4.57498 58.8443 1.09345 58.8356C0.428631 58.8356 0 58.3894 0 57.7332C0 51.4604 0 45.1962 0 38.9234C0 38.2847 0.428631 37.8385 1.0672 37.8385C4.54874 37.8298 8.03902 37.8298 11.5205 37.8385C12.1591 37.8385 12.579 38.2759 12.5965 38.9146C12.6052 39.2208 12.5965 39.5358 12.5965 39.9207ZM12.6315 42.0204C12.614 42.1517 12.6052 42.2041 12.6052 42.2654C12.6052 46.3161 12.6052 50.3755 12.5965 54.4262C12.5965 54.7062 12.7365 54.8024 12.9639 54.8724C15.3432 55.686 17.7226 56.5172 20.1107 57.3308C23.391 58.4506 26.6276 59.693 30.0129 60.4629C32.4447 61.0228 34.8591 61.0315 37.2646 60.2966C39.6177 59.5792 41.8221 58.5294 44.0003 57.4183C49.0914 54.8111 54.1737 52.169 59.256 49.5444C59.5185 49.4044 59.7896 49.2732 60.0696 49.1332C58.6874 47.3484 56.2469 46.6835 53.99 47.4272C50.6834 48.5208 47.3856 49.6144 44.0877 50.7167C43.6504 50.8654 43.178 51.0142 42.8456 51.3029C41.9708 52.099 40.9824 52.5277 39.8014 52.519C37.9819 52.5102 36.1537 52.519 34.3342 52.519C31.3425 52.519 28.3596 52.5277 25.368 52.5015C25.053 52.5015 24.6856 52.344 24.432 52.1428C24.1083 51.8803 24.0646 51.4604 24.2395 51.0579C24.4407 50.6117 24.7994 50.4105 25.2805 50.4105C28.1847 50.4105 31.0801 50.4105 33.9843 50.4105C35.9963 50.4105 38.0082 50.4193 40.0201 50.4105C40.9911 50.4018 41.6822 49.9643 41.8484 49.1594C41.9533 48.6608 41.9621 48.1096 41.8834 47.6109C41.7434 46.7535 41.1486 46.2898 40.2738 46.2198C40.0376 46.2023 39.8102 46.2023 39.574 46.2023C37.011 46.2023 34.4392 46.1936 31.8761 46.2111C31.36 46.2111 30.9576 46.0624 30.5553 45.7474C27.3536 43.2453 23.7322 41.9679 19.6558 42.0117C17.4864 42.0292 15.3082 42.0204 13.1388 42.0204C12.9726 42.0204 12.8152 42.0204 12.6315 42.0204ZM10.4796 39.9645C7.67162 39.9645 4.89864 39.9645 2.13441 39.9645C2.13441 45.5637 2.13441 51.1279 2.13441 56.6921C4.93363 56.6921 7.69786 56.6921 10.4796 56.6921C10.4796 51.1017 10.4796 45.5549 10.4796 39.9645Z" fill="black"/>
<path d="M40.6848 30.3758C39.9675 31.5744 39.2415 32.668 38.6467 33.8316C37.9468 35.2051 37.352 36.6312 36.7397 38.0485C36.5035 38.5996 36.1448 38.8971 35.6375 38.8708C35.1301 38.8446 34.7977 38.5121 34.6403 37.926C33.4768 33.6391 31.7186 29.6059 29.5754 25.7302C29.5317 25.6514 29.4792 25.5902 29.3917 25.459C29.2868 25.5989 29.208 25.7039 29.1293 25.8089C28.1846 27.1912 27.0649 28.3811 25.4728 29.011C23.5746 29.7634 21.7114 29.5446 19.9181 28.696C16.3229 26.9987 13.8998 24.2429 12.5964 20.4809C11.153 16.3165 10.6369 12.0296 10.9256 7.64644C11.0831 5.26677 11.5467 2.9396 12.6139 0.7699C13.025 -0.0612338 13.7248 -0.262456 14.4246 0.323713C16.3316 1.89849 18.5622 2.79087 20.9153 3.42953C23.2072 4.05069 25.5253 4.57562 27.7909 5.27552C32.086 6.61409 34.8677 9.52743 36.0311 13.8581C36.9234 17.1651 35.8474 19.921 33.2057 22.0557C32.5758 22.5631 31.8585 22.9743 31.1675 23.3943C30.9051 23.5517 30.8176 23.6655 30.9925 23.9629C32.882 27.2525 34.4741 30.682 35.7162 34.269C35.7512 34.3565 35.8124 34.4352 35.8912 34.5839C36.0399 34.2865 36.1448 34.0328 36.2848 33.8053C37.2558 32.1868 38.2268 30.5595 39.224 28.9497C39.4077 28.6523 39.4077 28.5123 39.1453 28.2761C38.0256 27.27 37.2033 26.0626 37.0021 24.5228C36.7484 22.5981 37.4395 20.9708 38.6642 19.536C39.9938 17.9788 41.7433 17.0601 43.6503 16.4302C45.2948 15.8878 46.9743 15.4679 48.6364 14.9779C50.1147 14.5405 51.4793 13.8581 52.7302 12.9482C53.57 12.3358 54.2698 12.572 54.6372 13.5344C55.7219 16.3777 55.7744 19.3173 55.4507 22.2832C55.2058 24.4791 54.7072 26.6138 53.8149 28.6435C52.634 31.3294 50.6133 33.0704 47.7966 33.8053C45.3036 34.4527 43.2391 33.6216 41.6208 31.6444C41.3147 31.2857 41.0522 30.8832 40.6848 30.3758ZM14.0747 2.72963C13.996 2.9046 13.9348 3.01834 13.8998 3.14082C13.6286 4.28691 13.2699 5.4155 13.1125 6.57909C12.4739 11.2772 13.0075 15.8615 14.7133 20.2797C15.8767 23.2805 17.9324 25.529 20.8191 26.955C22.5074 27.7861 24.1782 27.6899 25.709 26.5088C26.7325 25.7127 27.441 24.6628 28.0096 23.5255C28.0796 23.3855 28.0184 23.123 27.9221 22.9743C27.2748 21.9682 26.6187 20.9708 25.9277 19.9997C23.6796 16.8589 21.134 13.9893 18.2736 11.3909C17.74 10.9097 17.6962 10.2711 18.1249 9.80739C18.5447 9.3612 19.1658 9.36995 19.6819 9.83364C22.866 12.7295 25.6828 15.949 28.1321 19.4835C28.6657 20.2447 29.173 21.0233 29.6979 21.8107C30.8876 21.2333 31.9548 20.5421 32.8383 19.5885C34.1154 18.215 34.649 16.5964 34.2029 14.7505C33.6343 12.3883 32.3309 10.4636 30.4239 8.97626C29.0681 7.91765 27.441 7.41897 25.7965 6.99028C23.9945 6.51785 22.175 6.10666 20.3817 5.61673C18.1686 4.99556 16.0517 4.11194 14.0747 2.72963ZM53.0452 15.3191C52.8177 15.4416 52.6953 15.5116 52.5728 15.5816C51.007 16.5177 49.3187 17.1214 47.5692 17.6113C46.0821 18.0225 44.5863 18.4074 43.1429 18.9411C41.6733 19.4835 40.4137 20.3934 39.5127 21.7145C38.9353 22.5544 38.6904 23.4817 38.9878 24.4966C39.259 25.4415 39.8713 26.1589 40.6149 26.7713C40.6848 26.8325 40.9385 26.7713 41.026 26.6838C41.4896 26.2376 41.9095 25.7564 42.3731 25.3102C43.6765 24.0679 45.1111 23.0006 46.7294 22.1957C47.2893 21.9157 47.8753 22.0907 48.164 22.6069C48.4439 23.123 48.269 23.7005 47.7266 24.0329C47.6392 24.0854 47.5517 24.1291 47.4555 24.1816C45.496 25.2227 43.8515 26.6488 42.4081 28.3111C42.3031 28.4335 42.2507 28.731 42.3294 28.8447C42.8192 29.5971 43.2654 30.402 43.8865 31.0407C44.9362 32.1255 46.2745 32.353 47.6742 31.8281C49.4587 31.1544 50.8058 29.9383 51.7068 28.2586C52.6253 26.5438 53.0889 24.6803 53.3601 22.7643C53.64 20.8046 53.6662 18.8449 53.3776 16.8764C53.3076 16.3865 53.1676 15.8965 53.0452 15.3191Z" fill="black"/>
</g>
<defs>
<clipPath id="clip0">
<rect width="63" height="63" fill="white"/>
</clipPath>
</defs>
</svg>
